<?xml version="1.0" encoding="UTF-8"?>
<svg xmlns="http://www.w3.org/2000/svg" xmlns:xlink="http://www.w3.org/1999/xlink" width="70pt" height="50pt" viewBox="0 0 70 50" version="1.1">
<g id="surface1">
<path style=" stroke:none;fill-rule:nonzero;fill:rgb(100%,72.54902%,36.078431%);fill-opacity:1;" d="M 59.90625 33.28125 L 58.804688 34.3125 L 59.511719 36.089844 C 59.511719 36.089844 45.5625 41.785156 29.425781 28.167969 C 29.425781 28.167969 17.023438 16.09375 28.378906 4.71875 C 29.726562 3.363281 31.546875 2.25 33.726562 1.664062 C 34.976562 1.320312 36.445312 1.101562 38.023438 1.222656 L 39.929688 3.417969 L 39.070312 6.644531 C 38.875 7.367188 38.59375 8.066406 38.234375 8.757812 C 37.128906 10.828125 34.871094 16.21875 38.082031 21.007812 C 42.484375 27.574219 53.472656 31.660156 59.90625 33.28125 Z M 59.90625 33.28125 "/>
<path style=" stroke:none;fill-rule:nonzero;fill:rgb(98.823529%,67.843137%,17.647059%);fill-opacity:1;" d="M 33.726562 1.664062 C 34.976562 1.320312 36.445312 1.101562 38.023438 1.222656 L 39.929688 3.417969 C 38.226562 6.605469 30.644531 15.328125 34.359375 21.429688 C 40.179688 30.992188 52.753906 33.425781 58.964844 34.15625 L 58.804688 34.3125 L 59.511719 36.089844 C 59.511719 36.089844 45.5625 41.785156 29.425781 28.167969 C 29.425781 28.167969 17.023438 16.09375 28.378906 4.71875 C 29.726562 3.363281 31.546875 2.25 33.726562 1.664062 Z M 33.726562 1.664062 "/>
<path style=" stroke:none;fill-rule:nonzero;fill:rgb(58.823529%,35.686275%,18.431373%);fill-opacity:1;" d="M 59.90625 33.28125 L 60.835938 33.785156 L 60.570312 35.5625 L 59.511719 36.089844 L 58.804688 34.3125 Z M 59.90625 33.28125 "/>
<path style=" stroke:none;fill-rule:nonzero;fill:rgb(100%,72.54902%,36.078431%);fill-opacity:1;" d="M 54.5625 42.382812 L 52.9375 43.40625 L 53.191406 45.605469 C 53.191406 45.605469 35.046875 49.960938 20.621094 31.402344 C 20.621094 31.402344 10.0625 15.257812 27.027344 3.839844 C 29.039062 2.480469 31.53125 1.480469 34.273438 1.148438 C 35.835938 0.953125 37.625 0.9375 39.433594 1.34375 L 40.941406 4.214844 L 38.886719 7.847656 C 38.429688 8.65625 37.871094 9.4375 37.21875 10.175781 C 35.261719 12.414062 30.871094 18.335938 33.066406 24.460938 C 36.074219 32.855469 47.574219 39.433594 54.5625 42.382812 Z M 54.5625 42.382812 "/>
<path style=" stroke:none;fill-rule:nonzero;fill:rgb(98.823529%,67.843137%,17.647059%);fill-opacity:1;" d="M 34.273438 1.148438 C 35.835938 0.953125 37.625 0.9375 39.4375 1.34375 L 40.941406 4.214844 C 37.917969 7.660156 26.226562 16.609375 28.578125 24.34375 C 32.265625 36.46875 46.167969 41.378906 53.179688 43.253906 L 52.9375 43.40625 L 53.191406 45.605469 C 53.191406 45.605469 35.046875 49.960938 20.621094 31.402344 C 20.621094 31.402344 10.0625 15.257812 27.027344 3.839844 C 29.039062 2.480469 31.53125 1.480469 34.273438 1.148438 Z M 34.273438 1.148438 "/>
<path style=" stroke:none;fill-rule:nonzero;fill:rgb(58.823529%,35.686275%,18.431373%);fill-opacity:1;" d="M 54.5625 42.382812 L 55.488281 43.128906 L 54.601562 45.160156 L 53.191406 45.605469 L 52.9375 43.40625 Z M 54.5625 42.382812 "/>
<path style=" stroke:none;fill-rule:nonzero;fill:rgb(100%,72.54902%,36.078431%);fill-opacity:1;" d="M 38.28125 46.265625 L 36.246094 46.960938 L 35.617188 49.203125 C 35.617188 49.203125 15.714844 49.898438 8.714844 28.40625 C 8.714844 28.40625 4.613281 10.113281 26.164062 2.125 C 28.726562 1.171875 31.617188 0.675781 34.5 0.890625 C 36.136719 1.015625 37.933594 1.363281 39.582031 2.140625 L 39.941406 5.316406 L 36.429688 8.53125 C 35.648438 9.25 34.78125 9.917969 33.828125 10.523438 C 30.972656 12.367188 24.207031 17.40625 23.945312 23.976562 C 23.597656 32.984375 32.472656 41.898438 38.28125 46.265625 Z M 38.28125 46.265625 "/>
<path style=" stroke:none;fill-rule:nonzero;fill:rgb(98.823529%,67.843137%,17.647059%);fill-opacity:1;" d="M 34.5 0.890625 C 36.136719 1.015625 37.933594 1.363281 39.582031 2.140625 L 39.816406 4.214844 C 30.691406 7.054688 19.808594 12.597656 19.507812 22.953125 C 19.128906 35.859375 30.28125 43.5625 36.550781 46.855469 L 36.246094 46.960938 L 35.617188 49.203125 C 35.617188 49.203125 15.714844 49.898438 8.714844 28.40625 C 8.714844 28.40625 4.613281 10.113281 26.164062 2.125 C 28.726562 1.171875 31.617188 0.675781 34.5 0.890625 Z M 34.5 0.890625 "/>
<path style=" stroke:none;fill-rule:nonzero;fill:rgb(58.823529%,35.686275%,18.431373%);fill-opacity:1;" d="M 38.28125 46.265625 L 38.90625 47.195312 L 37.203125 49.046875 L 35.617188 49.203125 L 36.246094 46.960938 Z M 38.28125 46.265625 "/>
<path style=" stroke:none;fill-rule:nonzero;fill:rgb(66.27451%,69.411765%,20.784314%);fill-opacity:1;" d="M 39.941406 5.316406 L 39.816406 4.214844 L 39.417969 1.261719 L 45.292969 0 L 48.152344 3.492188 L 40.828125 6.066406 Z M 39.941406 5.316406 "/>
<path style=" stroke:none;fill-rule:nonzero;fill:rgb(74.509804%,75.686275%,25.882353%);fill-opacity:1;" d="M 39.816406 4.214844 L 47.101562 2.203125 L 48.152344 3.492188 L 40.828125 6.066406 L 39.941406 5.316406 Z M 39.816406 4.214844 "/>
</g>
</svg>
